<svg width="114" height="113" viewBox="0 0 114 113" fill="none" xmlns="http://www.w3.org/2000/svg">
<circle cx="57" cy="57" r="50" fill="#121212"/>
<path d="M56.591 19C44.4176 19 34.5245 29.8393 34.5245 43.1768V54.8219C34.5245 57.2799 33.5683 61.0273 32.4282 63.1226L28.1988 70.8189C25.5876 75.5737 27.3897 80.8523 32.1708 82.6252C48.0218 88.4277 65.1233 88.4277 80.9743 82.6252C85.4244 81.0135 87.3736 75.2513 84.9463 70.8189L80.7169 63.1226C79.6136 61.0273 78.6574 57.2799 78.6574 54.8219V43.1768C78.6574 29.8796 68.7275 19 56.591 19Z" stroke="#FFFDF6" stroke-width="4" stroke-miterlimit="10" stroke-linecap="round"/>
<path d="M63.7936 19.0771C62.6535 18.7145 61.4766 18.4324 60.2629 18.2712C56.7323 17.7877 53.3488 18.0698 50.186 19.0771C51.2525 16.0953 53.9005 14 56.9898 14C60.0791 14 62.727 16.0953 63.7936 19.0771Z" stroke="#FFFDF6" stroke-width="4" stroke-miterlimit="10" stroke-linecap="round" stroke-linejoin="round"/>
<path d="M67.0023 85.4848C67.0023 92.1334 62.0374 99 55.9691 99C52.9534 99 50.1583 97.63 48.1724 95.4541C46.1864 93.2782 44.936 88.7889 44.936 85.4848" stroke="#FFFDF6" stroke-width="4" stroke-miterlimit="10"/>
</svg>
